<?xml version="1.0" encoding="UTF-8" standalone="no" ?>
<!DOCTYPE svg PUBLIC "-//W3C//DTD SVG 1.1//EN" "http://www.w3.org/Graphics/SVG/1.1/DTD/svg11.dtd">
<svg xmlns="http://www.w3.org/2000/svg" xmlns:xlink="http://www.w3.org/1999/xlink" version="1.1" width="1080" height="1080" viewBox="0 0 1080 1080" xml:space="preserve">
<desc>Created with Fabric.js 5.2.4</desc>
<defs>
</defs>
<g transform="matrix(1 0 0 1 540 540)" id="19623dd5-1de9-46db-a48c-0f19069f99ef"  >
<rect style="stroke: none; stroke-width: 1; stroke-dasharray: none; stroke-linecap: butt; stroke-dashoffset: 0; stroke-linejoin: miter; stroke-miterlimit: 4; fill: rgb(15,82,186); fill-rule: nonzero; opacity: 1;" vector-effect="non-scaling-stroke"  x="-540" y="-540" rx="0" ry="0" width="1080" height="1080" />
</g>
<g transform="matrix(1 0 0 1 540 540)" id="3b6cfb06-2724-420f-b5f7-32fdd019e7cf"  >
</g>
<g transform="matrix(1.91 0 0 1.91 383.25 693.13)" id="4e8c6e42-c868-447f-9d1d-0a4fa231d47a"  >
<path style="stroke: rgb(0,0,0); stroke-width: 0; stroke-dasharray: none; stroke-linecap: butt; stroke-dashoffset: 0; stroke-linejoin: miter; stroke-miterlimit: 4; fill: rgb(255,255,255); fill-rule: nonzero; opacity: 1;" vector-effect="non-scaling-stroke"  transform=" translate(-223.95, -256)" d="M 342.6 86.6 C 355.1 74.1 355.1 53.8 342.6 41.3 C 330.1 28.799999999999997 309.8 28.799999999999997 297.3 41.3 L 160 178.7 L 102.6 121.29999999999998 C 90.1 108.79999999999998 69.8 108.79999999999998 57.3 121.29999999999998 C 44.8 133.79999999999998 44.8 154.09999999999997 57.3 166.59999999999997 L 137.3 246.59999999999997 C 149.8 259.09999999999997 170.10000000000002 259.09999999999997 182.60000000000002 246.59999999999997 L 342.6 86.59999999999997 z M 438.6 214.6 C 451.1 202.1 451.1 181.8 438.6 169.3 C 426.1 156.8 405.8 156.8 393.3 169.3 L 160 402.7 L 54.6 297.4 C 42.1 284.9 21.800000000000004 284.9 9.300000000000004 297.4 C -3.1999999999999957 309.9 -3.1999999999999957 330.2 9.300000000000004 342.7 L 137.3 470.7 C 149.8 483.2 170.10000000000002 483.2 182.60000000000002 470.7 L 438.6 214.7 z" stroke-linecap="round" />
</g>
<g transform="matrix(NaN NaN NaN NaN 0 0)"  >
<g style=""   >
</g>
</g>
<g transform="matrix(NaN NaN NaN NaN 0 0)"  >
<g style=""   >
</g>
</g>
</svg>